<svg width="47" height="65" viewBox="0 0 47 65" fill="none" xmlns="http://www.w3.org/2000/svg">
<path fill-rule="evenodd" clip-rule="evenodd" d="M8 3H39C41.7614 3 44 5.23858 44 8V57C44 59.7614 41.7614 62 39 62H8C5.23858 62 3 59.7614 3 57V8C3 5.23858 5.23858 3 8 3ZM0 8C0 3.58172 3.58172 0 8 0H39C43.4183 0 47 3.58172 47 8V57C47 61.4183 43.4183 65 39 65H8C3.58172 65 0 61.4183 0 57V8ZM23.5 53C24.3284 53 25 52.3284 25 51.5C25 50.6716 24.3284 50 23.5 50C22.6716 50 22 50.6716 22 51.5C22 52.3284 22.6716 53 23.5 53Z" fill="#F14563"/>
</svg>
