<svg width="32" height="47" viewBox="0 0 32 47" fill="none" xmlns="http://www.w3.org/2000/svg">
<path fill-rule="evenodd" clip-rule="evenodd" d="M11.5646 29.2828C13.2974 29.5995 14.5645 29.75 15.9375 29.75C17.0837 29.75 18.3195 29.6452 19.9728 29.4283C25.7697 27.7159 30 22.352 30 16C30 8.26801 23.732 2 16 2C8.26801 2 2 8.26801 2 16C2 22.1818 6.00659 27.4278 11.5646 29.2828ZM8.94269 30.3635C3.64522 27.7557 0 22.3035 0 16C0 7.16344 7.16344 0 16 0C24.8366 0 32 7.16344 32 16C32 21.926 28.7783 27.0996 23.9908 29.8648L23.9912 29.8678L25.9912 44.8678L26.2656 46.9255L24.4855 45.8575C23.7362 45.4079 22.7471 44.7694 21.7218 44.1075L21.7215 44.1074C21.0282 43.6598 20.3182 43.2015 19.6547 42.7837C18.8147 42.2549 18.0404 41.7848 17.4218 41.4494C17.1114 41.2811 16.8582 41.1566 16.666 41.0767C16.5794 41.0407 16.5215 41.0209 16.4877 41.0102C16.4508 41.0207 16.385 41.0413 16.2843 41.0816C16.0867 41.1607 15.8306 41.2841 15.5193 41.4513C14.8983 41.7848 14.1308 42.253 13.2998 42.7814C12.6569 43.1901 11.97 43.6392 11.2966 44.0795L11.2956 44.0801C10.2692 44.7512 9.27423 45.4017 8.5145 45.8575L6.73441 46.9255L7.00877 44.8678L8.94269 30.3635ZM11.0659 31.2247C10.9948 31.2116 10.9232 31.1982 10.8509 31.1846L9.274 43.0114C9.55431 42.829 9.84364 42.6398 10.1387 42.4468L10.1397 42.4461C10.8186 42.002 11.5277 41.5381 12.2267 41.0936C13.0667 40.5595 13.8848 40.0589 14.573 39.6893C14.9163 39.505 15.2456 39.3432 15.5407 39.225C15.8047 39.1193 16.1554 39 16.5 39C16.842 39 17.1917 39.1293 17.4336 39.2299C17.7161 39.3473 18.037 39.5079 18.3751 39.6912C19.0533 40.0589 19.8728 40.5576 20.7203 41.0913C21.4335 41.5403 22.162 42.0108 22.859 42.461L22.8595 42.4613L22.8598 42.4615C23.1558 42.6527 23.4462 42.8402 23.7273 43.0209L22.1433 31.1414C21.5142 31.2352 20.9318 31.3185 20.3871 31.3911C18.993 31.7877 17.5213 32 16 32C14.2782 32 12.62 31.728 11.0659 31.2247Z" fill="#F14563"/>
</svg>
