<svg width="41" height="41" viewBox="0 0 41 41" fill="none" xmlns="http://www.w3.org/2000/svg">
<path fill-rule="evenodd" clip-rule="evenodd" d="M0 0L1.51611 0.330788L29.0161 6.33079L29.6167 6.46182L29.7709 7.05684L32.8284 18.8498C33.2065 18.6372 33.6942 18.6894 34.0191 19.0088L39.8253 24.7155C40.2192 25.1026 40.2246 25.7357 39.8375 26.1296L26.1474 40.0584C25.7603 40.4522 25.1271 40.4577 24.7332 40.0706L18.9271 34.3639C18.5332 33.9768 18.5277 33.3436 18.9149 32.9497L18.9448 32.9193L7.08601 30.284L6.4596 30.1448L6.32514 29.5173L0.325142 1.51733L0 0ZM31.182 20.4688L28.5553 23.1412L20.484 31.2125L8.14629 28.4708L2.99026 4.40933L14.1313 15.5504C13.6078 16.3408 13.3029 17.2887 13.3029 18.3078C13.3029 21.0692 15.5415 23.3078 18.3029 23.3078C21.0644 23.3078 23.3029 21.0692 23.3029 18.3078C23.3029 15.5464 21.0644 13.3078 18.3029 13.3078C17.2839 13.3078 16.336 13.6127 15.5456 14.1362L4.42098 3.01163L27.9892 8.15379L31.182 20.4688ZM29.9753 24.5497L21.0422 33.6385L25.422 37.9432L37.7101 25.4409L33.3598 21.1651L33.0101 21.5149L29.9753 24.5497ZM18.3029 21.3078C19.9598 21.3078 21.3029 19.9647 21.3029 18.3078C21.3029 16.6509 19.9598 15.3078 18.3029 15.3078C16.6461 15.3078 15.3029 16.6509 15.3029 18.3078C15.3029 19.9647 16.6461 21.3078 18.3029 21.3078Z" fill="#F14563"/>
</svg>
